inDegrees=no
num_controls=7
num_derivatives=13
num_iterations=187
num_multipliers=7
num_parameters=0
num_slacks=7
num_states=26
objective=5.163075
objective_accelerations=0.519626
objective_balance=0.050591
objective_effort=0.281852
objective_height=4.268006
objective_ligament=0.043000
solver_duration=2090.756360
status=Solve_Succeeded
success=true
DataType=double
version=3
OpenSimVersion=4.4-2022-07-23-0e9fedc
endheader
time	/jointset/ground_pelvis/pelvis_tilt/value	/jointset/ground_pelvis/pelvis_tx/value	/jointset/ground_pelvis/pelvis_ty/value	/jointset/hip_l/hip_flexion_l/value	/jointset/hip_l/hip_adduction_l/value	/jointset/hip_l/hip_rotation_l/value	/jointset/back/lumbar_extension/value	/jointset/patellofemoral_l/patellar_flexion_l/value	/jointset/knee_l/knee_flexion_l/value	/jointset/knee_l/knee_adduction_l/value	/jointset/knee_l/knee_rotation_l/value	/jointset/ankle_l/ankle_angle_l/value	/jointset/subtalar_l/subtalar_angle_l/value	/jointset/ground_pelvis/pelvis_tilt/speed	/jointset/ground_pelvis/pelvis_tx/speed	/jointset/ground_pelvis/pelvis_ty/speed	/jointset/hip_l/hip_flexion_l/speed	/jointset/hip_l/hip_adduction_l/speed	/jointset/hip_l/hip_rotation_l/speed	/jointset/back/lumbar_extension/speed	/jointset/patellofemoral_l/patellar_flexion_l/speed	/jointset/knee_l/knee_flexion_l/speed	/jointset/knee_l/knee_adduction_l/speed	/jointset/knee_l/knee_rotation_l/speed	/jointset/ankle_l/ankle_angle_l/speed	/jointset/subtalar_l/subtalar_angle_l/speed	/forceset/tau_hip_flexion_l	/forceset/tau_hip_adduction_l	/forceset/tau_hip_rotation_l	/forceset/tau_knee_flexion_l	/forceset/tau_ankle_angle_l	/forceset/tau_subtalar_angle_l	/forceset/tau_lumbar_extension	lambda_cid13_p0	lambda_cid13_p1	lambda_cid13_p2	lambda_cid13_p3	lambda_cid13_p4	lambda_cid13_p5	lambda_cid14_p0	/jointset/ground_pelvis/pelvis_tilt/accel	/jointset/ground_pelvis/pelvis_tx/accel	/jointset/ground_pelvis/pelvis_ty/accel	/jointset/hip_l/hip_flexion_l/accel	/jointset/hip_l/hip_adduction_l/accel	/jointset/hip_l/hip_rotation_l/accel	/jointset/back/lumbar_extension/accel	/jointset/patellofemoral_l/patellar_flexion_l/accel	/jointset/knee_l/knee_flexion_l/accel	/jointset/knee_l/knee_adduction_l/accel	/jointset/knee_l/knee_rotation_l/accel	/jointset/ankle_l/ankle_angle_l/accel	/jointset/subtalar_l/subtalar_angle_l/accel	gamma_cid13_p0	gamma_cid13_p1	gamma_cid13_p2	gamma_cid13_p3	gamma_cid13_p4	gamma_cid13_p5	gamma_cid14_p0
0.5	-0.4030597686534794	-0.06945412205226562	0.781066931625812	1.070031022739536	-0.4276492702679815	-0.3015372691658082	-0.2539846548389216	0.6010160649198139	0.601016064919851	-0.1744629920131658	-0.1686264592524734	-0.03623614714695925	-0.09510416607437351	-0.9586876926929129	-0.3153226259329047	-0.4272096561909703	2.381209644588382	-0.2204189096237973	0.6083098155037603	-0.1179344522017498	1.430221599694881	1.4302215996949	-0.001084213483860433	-0.04238112851221932	0.09550256059798073	-0.1926466756849209	-0.198749083641823	0.01137180510510505	-0.004778989429685478	-0.1665730934718246	0.0939920258329567	0.05776488028059849	0.1860296702537712	-3.864413122200957	-27.49211497173014	7.566844231170737	-6.160881634332933	-527.7663212111278	-70.89167054996413	-34.79014846405222	0.7225257410265841	0.5737406943043259	-0.2787010359384002	-1.395029154876276	0.5501504682214273	-0.08196475859625985	1.070541543414612	-0.9433289536135574	-0.9433289536135313	0.01694617946790536	0.1663340119703201	-0.05418061842803797	0.5492457761598853	2.968712228605562e-08	-6.945357882839837e-07	-1.720533478795974e-07	-2.264907794449328e-07	-1.036612114216067e-07	1.290514397481207e-07	-9.45302909765249e-08
0.51	-0.4126085082545155	-0.07257828050649506	0.7767817918603666	1.093769175942263	-0.4298262843603242	-0.2954605296856605	-0.2551115072625271	0.6152693993947118	0.6152693993947321	-0.1744734594379477	-0.1690435765236442	-0.03528414596401528	-0.09700365481419766	-0.9509257912343101	-0.309477559185346	-0.4297300477414166	2.366095077080691	-0.2149639947104895	0.6069581621173213	-0.1074741337175512	1.420252183100202	1.420252183100195	-0.001008171929181533	-0.04103619867714244	0.09487390483250586	-0.1872413930001922	-0.2050074550153599	0.01232298124948684	-0.004574749256681974	-0.1678682486653526	0.09474340276944061	0.05898705021898445	0.1906505808247778	-3.806313205346632	-27.97198452295225	7.573567126431832	-6.356854243015248	-530.7724084623011	-70.68544524225594	-34.22003091617644	0.8232051023864926	0.5945695915062778	-0.2254896358191119	-1.61854100279641	0.5462857180578432	-0.1738247906942988	1.028061821180813	-1.052696649858601	-1.052696649862565	0.00295459138228527	0.11950076766823	-0.0707845017647956	0.5377530964626285	3.224581635381815e-08	-6.735040346489248e-07	-1.93911142813569e-07	-2.251256819538172e-07	-9.111256020372418e-08	1.323168795947247e-07	-9.013069632069211e-08
0.52	-0.422075592290143	-0.07564305230794402	0.7724740918951724	1.117346409379097	-0.4319481245604989	-0.2893997185717829	-0.2561348995372387	0.6294172499761708	0.629417249976173	-0.1744831621576027	-0.1694470588367841	-0.03433914662795742	-0.09884877401080788	-0.9423565796113336	-0.3034452953768039	-0.4317216961407185	2.349025691409766	-0.2093841311902867	0.6051241422498187	-0.09724242242302002	1.409124821006984	1.40912482100695	-0.0009312724579262896	-0.03965413690639166	0.09410219122072766	-0.1817727670421332	-0.2112658263888934	0.01327415739386919	-0.004370509083688772	-0.1691634038588788	0.09549477970592481	0.06020922015737123	0.1952714913957875	-3.757390120298116	-28.45074923355758	7.580687216064421	-6.531390138222812	-533.9123135646554	-70.50464732115964	-33.6380954437703	0.8839877739013661	0.6111801065009986	-0.1729524057095288	-1.78599278752289	0.5751401896004167	-0.1784380548090026	1.024820105481121	-1.174918053321239	-1.174918053321225	0.01711776278317269	0.1737603991050976	-0.08279218768870386	0.561914430825928	2.734715359503553e-08	-6.402236062570335e-07	-1.86427391490687e-07	-2.159581424311556e-07	-8.533201584624952e-08	1.354610679972717e-07	-8.847314377846792e-08
0.53	-0.4314530915206001	-0.07864664054592006	0.7681491273266469	1.1407434202608	-0.4340135812811754	-0.2833595485028995	-0.2570571926902302	0.6434481247153678	0.6434481247153906	-0.1744920713866655	-0.1698364427889215	-0.03340258386378355	-0.1006389318680268	-0.9330136572551393	-0.297247443609072	-0.4331813567258757	2.330061784475975	-0.2036926197551374	0.6028293675028038	-0.08727100547945842	1.396865999178157	1.396865999178137	-0.0008501040356080007	-0.03821839068156878	0.09318698264757991	-0.1762542361987153	-0.2173718058203306	0.01409177219363569	-0.004194705613482999	-0.1704327790636914	0.09625848820976853	0.06134120419836882	0.199727342816393	-3.699624145153423	-28.89408286079645	7.584658244657251	-6.675954637135783	-536.9324018843042	-70.27162078855244	-33.04675118429514	0.9788999670114709	0.6277817747411569	-0.1190102182951377	-1.998780547273201	0.5684703672287881	-0.2671404149622651	0.9750828931622052	-1.278965875312553	-1.278965875310438	0.003555853284013269	0.1291290154878437	-0.0994031375933413	0.5476271572811842	2.251842214711609e-08	-6.049903504037497e-07	-1.775813530259201e-07	-2.058370658793862e-07	-7.944866847738183e-08	1.374918694334611e-07	-8.640881905088846e-08
0.54	-0.4407332704273879	-0.08158751145365241	0.7638122586855945	1.163941353892971	-0.4360216601381489	-0.2773447548275501	-0.2578814155929124	0.6573508909107474	0.6573508909107904	-0.1745001810372409	-0.1702113398225458	-0.03247587677443423	-0.1023737434675753	-0.9228925148776257	-0.2909018293280672	-0.4341025106460872	2.309210241503541	-0.1979085584497243	0.6000488635432082	-0.0776283723611562	1.383503112243367	1.383503112243362	-0.0007713567601753857	-0.03675675320406789	0.092131056255811	-0.170703515508039	-0.2234777852517741	0.01490938699340039	-0.004018902143284525	-0.1717021542685029	0.09702219671361242	0.06247318823936469	0.204183194236993	-3.650299103455276	-29.33651365387684	7.589142214989308	-6.804311328127902	-540.0799614316686	-70.06334391940777	-32.44836009086841	1.039631778165235	0.6407326091555655	-0.065251072720408	-2.163519995251551	0.5936501636531499	-0.2755838973251029	0.9590633404292443	-1.395731074513598	-1.395731074513596	0.01663353340603638	0.1789386496406966	-0.110935751412931	0.5683524002776006	1.77670615112155e-08	-5.675965194867971e-07	-1.672281032552381e-07	-1.946610121890296e-07	-7.345158160654734e-08	1.382908384813402e-07	-8.389444850121382e-08
0.55	-0.4499085162679134	-0.08446425558603811	0.7594688703106434	1.1869216017391	-0.4379714626293507	-0.2713600647555082	-0.2586108873640806	0.6711145889289035	0.6711145889289382	-0.1745074906090766	-0.1705713745214181	-0.03156042824486648	-0.1040529112423422	-0.9120330924759383	-0.2844279157313944	-0.4344844850368578	2.286536488264464	-0.1920424961956883	0.5968076584905716	-0.06833467284541317	1.369061312900867	1.369061312900855	-0.000690545198628097	-0.03524817165145805	0.09093643654476805	-0.1651300345328953	-0.2294041269763412	0.01562799324191402	-0.003870867404116143	-0.1729583930815781	0.09783101357071496	0.0634702323632003	0.2084569123102143	-3.580594045092517	-29.72740455230332	7.589402767753596	-6.908036156588625	-543.0844708689817	-69.7678163441477	-31.84512349579868	1.127642566380703	0.6535452345801762	-0.01108276225424236	-2.364717891616985	0.5846115207306546	-0.3606752691450152	0.9042196111955516	-1.494664632588857	-1.494664632589861	0.003690591329014892	0.1371271506641472	-0.127068063732598	0.5519520079857595	1.022603499365338e-08	-5.240575494405428e-07	-1.455952832378037e-07	-1.783466532194664e-07	-7.051414772592959e-08	1.388548815146115e-07	-8.178473879564444e-08
0.5600000000000001	-0.4589714588653793	-0.08727569568252572	0.7551243797637849	1.209666029072163	-0.4398622990451213	-0.2654102440259745	-0.2592494828692811	0.6847286168999418	0.6847286168999657	-0.1745140149405461	-0.1709162615562402	-0.03065759450896529	-0.105676322994987	-0.9004318662658441	-0.277841022148443	-0.4343229450275825	2.262046138890139	-0.1861153433635805	0.5930749950414526	-0.0594531191677217	1.353569102819543	1.353569102819524	-0.0006143086850824716	-0.03372722039512802	0.08960809752242033	-0.1595523110836315	-0.235330468700897	0.016346599490432	-0.003722832664982243	-0.1742146318946476	0.09863983042781894	0.06446727648704156	0.2127306303834446	-3.518618051910604	-30.11756259034479	7.590255128483165	-7.000635631494089	-546.2107285772004	-69.49616929019733	-31.23917130800245	1.187992539846598	0.6633286064112827	0.04345180728875327	-2.526839222301143	0.6058682792675154	-0.3738755766215948	0.8766341728189346	-1.605813222278264	-1.605813222278324	0.0157185238057026	0.181412590384732	-0.1376796136738813	0.5692008951016134	-6.625905819024488e-10	-4.731444124391267e-07	-1.104269789242669e-07	-1.558663279148556e-07	-7.124829743357177e-08	1.391370133303533e-07	-8.016062210300139e-08
0.5700000000000001	-0.467914887238583	-0.09002077342410258	0.7507842179350328	1.232156756337752	-0.4416935590190119	-0.2594999765219388	-0.2598013283427537	0.6981824834943214	0.6981824834943601	-0.1745198154722946	-0.171245643666047	-0.02976873490674451	-0.1072439468974191	-0.8881366956514419	-0.2711611277827292	-0.4336187206599637	2.235809999848485	-0.1801301885417962	0.5888947056915388	-0.0509984045686211	1.337038505775842	1.337038505775808	-0.0005413414100769742	-0.03214934117349307	0.0881435388757006	-0.1539743908409458	-0.2410424553224844	0.01691788148589919	-0.003599814999140879	-0.1754679393806143	0.09946789941205168	0.06537048685469822	0.2167964700601303	-3.442633059649666	-30.47193061356748	7.588267626999172	-7.061776289959599	-549.1713453710079	-69.17999529883117	-30.63246170544728	1.267852840899201	0.6723009792457793	0.09749842821559053	-2.715392151356197	0.5958958245579496	-0.452734962864767	0.8175257471790537	-1.701523639118433	-1.701523639120754	0.00366068158662155	0.1459689232990938	-0.1538968233767004	0.5518804440636613	-8.328960160641185e-09	-4.258604993676172e-07	-8.507734696863797e-08	-1.366152034805815e-07	-6.889912715826217e-08	1.37562757422255e-07	-7.721775334042715e-08
0.58	-0.4767318492019096	-0.09269865599650347	0.7464538164853003	1.254376444031673	-0.4434647560964997	-0.2536340377811402	-0.2602710995414906	0.7114660759795239	0.7114660759795771	-0.1745247713608468	-0.1715592483165873	-0.02889513145763192	-0.1087558330263821	-0.8751385842905544	-0.2644019883132434	-0.4323708692236601	2.207838224556483	-0.1741027640830499	0.5842092423940848	-0.04303826422058395	1.319514280984045	1.319514280983995	-0.0004453800455252722	-0.03057172854200977	0.08655686690075363	-0.1484047563897957	-0.2467544419440776	0.01748916348136639	-0.003476797333304854	-0.1767212468665798	0.1002959683962854	0.0662736972223554	0.22086230973681	-3.372475390084835	-30.82599171497245	7.587046044287781	-7.124452320445408	-552.2322257182867	-68.88465892138331	-30.03042760051126	1.328580689143706	0.6791776271657205	0.1521772210257097	-2.873966472370764	0.6143222066599048	-0.4749103661296711	0.7777193226062423	-1.804538771897593	-1.80453877189762	0.02031734171494183	0.1813592723544003	-0.1621022793193264	0.5675437367945027	-1.179890332492054e-08	-3.833030174606375e-07	-7.251482320005165e-08	-1.215695499472113e-07	-6.253447039352719e-08	1.335708802924112e-07	-7.255744002166358e-08
0.59	-0.4854154916010132	-0.09530862497784486	0.7421385968799084	1.276308011959208	-0.4451754664203235	-0.24781728540211	-0.2606637851240453	0.7245694955078977	0.7245694955079156	-0.1745286495178719	-0.1718568824968585	-0.02803802473453577	-0.1102120716526714	-0.8614760560493556	-0.257584481175206	-0.4305828372323032	2.178195153687588	-0.1680378891169588	0.5790594633410491	-0.0356000056401929	1.301010460895621	1.301010460895576	-0.0003295295986557459	-0.02895465323104274	0.08484325795583521	-0.1428504289808076	-0.2522239749621331	0.01796527358608047	-0.003373113136700115	-0.1779751167149463	0.1011014935127334	0.06704527631740725	0.2246956162284032	-3.300964720145847	-31.12574351941832	7.580160213314351	-7.125169236186101	-555.1030601425866	-68.5146200722421	-29.43694414348797	1.402169070943378	0.6841137231110318	0.2056366204138503	-3.051504594358375	0.6028525816410425	-0.5473285443179469	0.7117061232791373	-1.897164231155958	-1.897164231155063	0.007250859518087792	0.1519633858188417	-0.1791824970676229	0.5483228614691491	-1.200265881997703e-08	-3.456804322692109e-07	-7.040251168318985e-08	-1.108642929372661e-07	-5.325766829344183e-08	1.27366212655948e-07	-6.682341357706295e-08
